<?xml version="1.0" encoding="UTF-8" standalone="no"?>
<!-- Generator: Gravit.io -->
<svg xmlns="http://www.w3.org/2000/svg" xmlns:xlink="http://www.w3.org/1999/xlink" style="isolation:isolate" viewBox="0 0 290 70" width="290pt" height="70pt"><defs><clipPath id="_clipPath_8gWp2DnrDfsDNCpL8ZiVzFyNTxkrKN2d"><rect width="290" height="70"/></clipPath></defs><g clip-path="url(#_clipPath_8gWp2DnrDfsDNCpL8ZiVzFyNTxkrKN2d)"><g><polygon points="10.591,49.077,34.98,63.158,59.368,49.077,59.368,20.915,34.98,6.835,10.591,20.915" fill="rgb(38,27,98)"/><polygon points="14.371,46.338,34.916,58.274,55.525,46.449,55.589,22.689,35.044,10.753,14.435,22.578" fill="rgb(255,255,255)"/><path d=" M 55.459 46.571 L 34.866 34.585 L 14.353 46.41 L 34.866 58.315 L 55.459 46.571 Z " fill="rgb(0,169,235)"/></g><path d=" M 84.762 51.924 L 84.762 51.924 Q 81.286 51.924 78.052 50.846 L 78.052 50.846 L 78.052 50.846 Q 74.818 49.768 72.97 48.052 L 72.97 48.052 L 74.598 44.62 L 74.598 44.62 Q 76.358 46.204 79.108 47.194 L 79.108 47.194 L 79.108 47.194 Q 81.858 48.184 84.762 48.184 L 84.762 48.184 L 84.762 48.184 Q 88.59 48.184 90.482 46.886 L 90.482 46.886 L 90.482 46.886 Q 92.374 45.588 92.374 43.432 L 92.374 43.432 L 92.374 43.432 Q 92.374 41.848 91.34 40.858 L 91.34 40.858 L 91.34 40.858 Q 90.306 39.868 88.788 39.34 L 88.788 39.34 L 88.788 39.34 Q 87.27 38.812 84.498 38.152 L 84.498 38.152 L 84.498 38.152 Q 81.022 37.316 78.888 36.48 L 78.888 36.48 L 78.888 36.48 Q 76.754 35.644 75.236 33.906 L 75.236 33.906 L 75.236 33.906 Q 73.718 32.168 73.718 29.22 L 73.718 29.22 L 73.718 29.22 Q 73.718 26.756 75.016 24.776 L 75.016 24.776 L 75.016 24.776 Q 76.314 22.796 78.954 21.608 L 78.954 21.608 L 78.954 21.608 Q 81.594 20.42 85.51 20.42 L 85.51 20.42 L 85.51 20.42 Q 88.238 20.42 90.878 21.124 L 90.878 21.124 L 90.878 21.124 Q 93.518 21.828 95.41 23.148 L 95.41 23.148 L 93.958 26.668 L 93.958 26.668 Q 92.022 25.436 89.822 24.798 L 89.822 24.798 L 89.822 24.798 Q 87.622 24.16 85.51 24.16 L 85.51 24.16 L 85.51 24.16 Q 81.77 24.16 79.9 25.524 L 79.9 25.524 L 79.9 25.524 Q 78.03 26.888 78.03 29.044 L 78.03 29.044 L 78.03 29.044 Q 78.03 30.628 79.086 31.618 L 79.086 31.618 L 79.086 31.618 Q 80.142 32.608 81.704 33.158 L 81.704 33.158 L 81.704 33.158 Q 83.266 33.708 85.95 34.324 L 85.95 34.324 L 85.95 34.324 Q 89.426 35.16 91.538 35.996 L 91.538 35.996 L 91.538 35.996 Q 93.65 36.832 95.168 38.548 L 95.168 38.548 L 95.168 38.548 Q 96.686 40.264 96.686 43.168 L 96.686 43.168 L 96.686 43.168 Q 96.686 45.588 95.366 47.59 L 95.366 47.59 L 95.366 47.59 Q 94.046 49.592 91.362 50.758 L 91.362 50.758 L 91.362 50.758 Q 88.678 51.924 84.762 51.924 L 84.762 51.924 L 84.762 51.924 Z  M 113.946 28.032 L 113.946 28.032 Q 118.39 28.032 121.008 30.606 L 121.008 30.606 L 121.008 30.606 Q 123.626 33.18 123.626 38.152 L 123.626 38.152 L 123.626 51.572 L 119.402 51.572 L 119.402 38.636 L 119.402 38.636 Q 119.402 35.248 117.774 33.532 L 117.774 33.532 L 117.774 33.532 Q 116.146 31.816 113.11 31.816 L 113.11 31.816 L 113.11 31.816 Q 109.678 31.816 107.698 33.818 L 107.698 33.818 L 107.698 33.818 Q 105.718 35.82 105.718 39.56 L 105.718 39.56 L 105.718 51.572 L 101.494 51.572 L 101.494 18.924 L 105.718 18.924 L 105.718 31.552 L 105.718 31.552 Q 107.038 29.88 109.172 28.956 L 109.172 28.956 L 109.172 28.956 Q 111.306 28.032 113.946 28.032 L 113.946 28.032 L 113.946 28.032 Z  M 140.578 51.836 L 140.578 51.836 Q 137.102 51.836 134.33 50.296 L 134.33 50.296 L 134.33 50.296 Q 131.558 48.756 129.996 46.05 L 129.996 46.05 L 129.996 46.05 Q 128.434 43.344 128.434 39.912 L 128.434 39.912 L 128.434 39.912 Q 128.434 36.48 129.996 33.774 L 129.996 33.774 L 129.996 33.774 Q 131.558 31.068 134.33 29.55 L 134.33 29.55 L 134.33 29.55 Q 137.102 28.032 140.578 28.032 L 140.578 28.032 L 140.578 28.032 Q 144.054 28.032 146.804 29.55 L 146.804 29.55 L 146.804 29.55 Q 149.554 31.068 151.116 33.774 L 151.116 33.774 L 151.116 33.774 Q 152.678 36.48 152.678 39.912 L 152.678 39.912 L 152.678 39.912 Q 152.678 43.344 151.116 46.05 L 151.116 46.05 L 151.116 46.05 Q 149.554 48.756 146.804 50.296 L 146.804 50.296 L 146.804 50.296 Q 144.054 51.836 140.578 51.836 L 140.578 51.836 L 140.578 51.836 Z  M 140.578 48.14 L 140.578 48.14 Q 142.822 48.14 144.604 47.106 L 144.604 47.106 L 144.604 47.106 Q 146.386 46.072 147.398 44.202 L 147.398 44.202 L 147.398 44.202 Q 148.41 42.332 148.41 39.912 L 148.41 39.912 L 148.41 39.912 Q 148.41 37.492 147.398 35.622 L 147.398 35.622 L 147.398 35.622 Q 146.386 33.752 144.604 32.74 L 144.604 32.74 L 144.604 32.74 Q 142.822 31.728 140.578 31.728 L 140.578 31.728 L 140.578 31.728 Q 138.334 31.728 136.552 32.74 L 136.552 32.74 L 136.552 32.74 Q 134.77 33.752 133.736 35.622 L 133.736 35.622 L 133.736 35.622 Q 132.702 37.492 132.702 39.912 L 132.702 39.912 L 132.702 39.912 Q 132.702 42.332 133.736 44.202 L 133.736 44.202 L 133.736 44.202 Q 134.77 46.072 136.552 47.106 L 136.552 47.106 L 136.552 47.106 Q 138.334 48.14 140.578 48.14 L 140.578 48.14 L 140.578 48.14 Z  M 169.894 28.032 L 169.894 28.032 Q 173.282 28.032 175.966 29.528 L 175.966 29.528 L 175.966 29.528 Q 178.65 31.024 180.168 33.708 L 180.168 33.708 L 180.168 33.708 Q 181.686 36.392 181.686 39.912 L 181.686 39.912 L 181.686 39.912 Q 181.686 43.432 180.168 46.138 L 180.168 46.138 L 180.168 46.138 Q 178.65 48.844 175.966 50.34 L 175.966 50.34 L 175.966 50.34 Q 173.282 51.836 169.894 51.836 L 169.894 51.836 L 169.894 51.836 Q 167.386 51.836 165.296 50.868 L 165.296 50.868 L 165.296 50.868 Q 163.206 49.9 161.754 48.052 L 161.754 48.052 L 161.754 60.108 L 157.53 60.108 L 157.53 28.252 L 161.578 28.252 L 161.578 31.948 L 161.578 31.948 Q 162.986 30.012 165.142 29.022 L 165.142 29.022 L 165.142 29.022 Q 167.298 28.032 169.894 28.032 L 169.894 28.032 L 169.894 28.032 Z  M 169.542 48.14 L 169.542 48.14 Q 171.786 48.14 173.568 47.106 L 173.568 47.106 L 173.568 47.106 Q 175.35 46.072 176.384 44.202 L 176.384 44.202 L 176.384 44.202 Q 177.418 42.332 177.418 39.912 L 177.418 39.912 L 177.418 39.912 Q 177.418 37.492 176.384 35.622 L 176.384 35.622 L 176.384 35.622 Q 175.35 33.752 173.568 32.74 L 173.568 32.74 L 173.568 32.74 Q 171.786 31.728 169.542 31.728 L 169.542 31.728 L 169.542 31.728 Q 167.342 31.728 165.56 32.762 L 165.56 32.762 L 165.56 32.762 Q 163.778 33.796 162.744 35.644 L 162.744 35.644 L 162.744 35.644 Q 161.71 37.492 161.71 39.912 L 161.71 39.912 L 161.71 39.912 Q 161.71 42.332 162.722 44.202 L 162.722 44.202 L 162.722 44.202 Q 163.734 46.072 165.538 47.106 L 165.538 47.106 L 165.538 47.106 Q 167.342 48.14 169.542 48.14 L 169.542 48.14 L 169.542 48.14 Z  M 200.926 51.924 L 200.926 51.924 Q 196.306 51.924 192.588 49.878 L 192.588 49.878 L 192.588 49.878 Q 188.87 47.832 186.758 44.246 L 186.758 44.246 L 186.758 44.246 Q 184.646 40.66 184.646 36.172 L 184.646 36.172 L 184.646 36.172 Q 184.646 31.684 186.758 28.098 L 186.758 28.098 L 186.758 28.098 Q 188.87 24.512 192.61 22.466 L 192.61 22.466 L 192.61 22.466 Q 196.35 20.42 200.97 20.42 L 200.97 20.42 L 200.97 20.42 Q 204.578 20.42 207.57 21.63 L 207.57 21.63 L 207.57 21.63 Q 210.562 22.84 212.674 25.216 L 212.674 25.216 L 209.814 27.988 L 209.814 27.988 Q 206.338 24.336 201.146 24.336 L 201.146 24.336 L 201.146 24.336 Q 197.714 24.336 194.942 25.876 L 194.942 25.876 L 194.942 25.876 Q 192.17 27.416 190.608 30.122 L 190.608 30.122 L 190.608 30.122 Q 189.046 32.828 189.046 36.172 L 189.046 36.172 L 189.046 36.172 Q 189.046 39.516 190.608 42.222 L 190.608 42.222 L 190.608 42.222 Q 192.17 44.928 194.942 46.468 L 194.942 46.468 L 194.942 46.468 Q 197.714 48.008 201.146 48.008 L 201.146 48.008 L 201.146 48.008 Q 206.294 48.008 209.814 44.312 L 209.814 44.312 L 212.674 47.084 L 212.674 47.084 Q 210.562 49.46 207.548 50.692 L 207.548 50.692 L 207.548 50.692 Q 204.534 51.924 200.926 51.924 L 200.926 51.924 L 200.926 51.924 Z  M 225.534 28.032 L 225.534 28.032 Q 230.374 28.032 232.948 30.408 L 232.948 30.408 L 232.948 30.408 Q 235.522 32.784 235.522 37.492 L 235.522 37.492 L 235.522 51.572 L 231.518 51.572 L 231.518 48.492 L 231.518 48.492 Q 230.462 50.12 228.504 50.978 L 228.504 50.978 L 228.504 50.978 Q 226.546 51.836 223.862 51.836 L 223.862 51.836 L 223.862 51.836 Q 219.946 51.836 217.592 49.944 L 217.592 49.944 L 217.592 49.944 Q 215.238 48.052 215.238 44.972 L 215.238 44.972 L 215.238 44.972 Q 215.238 41.892 217.482 40.022 L 217.482 40.022 L 217.482 40.022 Q 219.726 38.152 224.61 38.152 L 224.61 38.152 L 231.298 38.152 L 231.298 37.316 L 231.298 37.316 Q 231.298 34.588 229.714 33.136 L 229.714 33.136 L 229.714 33.136 Q 228.13 31.684 225.05 31.684 L 225.05 31.684 L 225.05 31.684 Q 222.982 31.684 221.002 32.366 L 221.002 32.366 L 221.002 32.366 Q 219.022 33.048 217.658 34.192 L 217.658 34.192 L 215.898 31.024 L 215.898 31.024 Q 217.702 29.572 220.21 28.802 L 220.21 28.802 L 220.21 28.802 Q 222.718 28.032 225.534 28.032 L 225.534 28.032 L 225.534 28.032 Z  M 224.566 48.58 L 224.566 48.58 Q 226.986 48.58 228.746 47.502 L 228.746 47.502 L 228.746 47.502 Q 230.506 46.424 231.298 44.444 L 231.298 44.444 L 231.298 41.188 L 224.786 41.188 L 224.786 41.188 Q 219.418 41.188 219.418 44.796 L 219.418 44.796 L 219.418 44.796 Q 219.418 46.556 220.782 47.568 L 220.782 47.568 L 220.782 47.568 Q 222.146 48.58 224.566 48.58 L 224.566 48.58 L 224.566 48.58 Z  M 249.042 51.836 L 249.042 51.836 Q 246.182 51.836 243.542 51.066 L 243.542 51.066 L 243.542 51.066 Q 240.902 50.296 239.406 49.108 L 239.406 49.108 L 241.166 45.764 L 241.166 45.764 Q 242.706 46.864 244.906 47.524 L 244.906 47.524 L 244.906 47.524 Q 247.106 48.184 249.35 48.184 L 249.35 48.184 L 249.35 48.184 Q 254.894 48.184 254.894 45.016 L 254.894 45.016 L 254.894 45.016 Q 254.894 43.96 254.146 43.344 L 254.146 43.344 L 254.146 43.344 Q 253.398 42.728 252.276 42.442 L 252.276 42.442 L 252.276 42.442 Q 251.154 42.156 249.086 41.804 L 249.086 41.804 L 249.086 41.804 Q 246.27 41.364 244.488 40.792 L 244.488 40.792 L 244.488 40.792 Q 242.706 40.22 241.43 38.856 L 241.43 38.856 L 241.43 38.856 Q 240.154 37.492 240.154 35.028 L 240.154 35.028 L 240.154 35.028 Q 240.154 31.86 242.794 29.946 L 242.794 29.946 L 242.794 29.946 Q 245.434 28.032 249.878 28.032 L 249.878 28.032 L 249.878 28.032 Q 252.21 28.032 254.542 28.604 L 254.542 28.604 L 254.542 28.604 Q 256.874 29.176 258.37 30.144 L 258.37 30.144 L 256.566 33.488 L 256.566 33.488 Q 253.706 31.64 249.834 31.64 L 249.834 31.64 L 249.834 31.64 Q 247.15 31.64 245.742 32.52 L 245.742 32.52 L 245.742 32.52 Q 244.334 33.4 244.334 34.852 L 244.334 34.852 L 244.334 34.852 Q 244.334 35.996 245.126 36.656 L 245.126 36.656 L 245.126 36.656 Q 245.918 37.316 247.084 37.624 L 247.084 37.624 L 247.084 37.624 Q 248.25 37.932 250.362 38.328 L 250.362 38.328 L 250.362 38.328 Q 253.178 38.812 254.916 39.362 L 254.916 39.362 L 254.916 39.362 Q 256.654 39.912 257.886 41.232 L 257.886 41.232 L 257.886 41.232 Q 259.118 42.552 259.118 44.928 L 259.118 44.928 L 259.118 44.928 Q 259.118 48.096 256.412 49.966 L 256.412 49.966 L 256.412 49.966 Q 253.706 51.836 249.042 51.836 L 249.042 51.836 L 249.042 51.836 Z  M 275.19 47.172 L 276.51 50.208 L 276.51 50.208 Q 275.586 51 274.222 51.418 L 274.222 51.418 L 274.222 51.418 Q 272.858 51.836 271.406 51.836 L 271.406 51.836 L 271.406 51.836 Q 267.886 51.836 265.95 49.944 L 265.95 49.944 L 265.95 49.944 Q 264.014 48.052 264.014 44.532 L 264.014 44.532 L 264.014 31.728 L 260.054 31.728 L 260.054 28.252 L 264.014 28.252 L 264.014 23.148 L 268.238 23.148 L 268.238 28.252 L 274.926 28.252 L 274.926 31.728 L 268.238 31.728 L 268.238 44.356 L 268.238 44.356 Q 268.238 46.248 269.184 47.26 L 269.184 47.26 L 269.184 47.26 Q 270.13 48.272 271.89 48.272 L 271.89 48.272 L 271.89 48.272 Q 273.826 48.272 275.19 47.172 L 275.19 47.172 L 275.19 47.172 Z " fill="rgb(38,27,98)"/></g></svg>